<svg width="59" height="74" viewBox="0 0 59 74" fill="none" xmlns="http://www.w3.org/2000/svg">
<path d="M58.9301 24.34C58.8701 17.51 53.3301 11.9 46.5101 11.74C45.0601 11.71 43.6601 11.92 42.3601 12.33C42.1501 5.49 36.5401 0 29.6501 0C22.7601 0 17.0801 5.55 16.9401 12.45C15.5001 11.94 13.9501 11.69 12.3201 11.74C5.51007 11.96 0.0200743 17.6 7.42969e-05 24.42C-0.0199257 30.33 4.00007 35.31 9.46007 36.75L9.41007 37.05C7.94007 39.13 7.08007 41.67 7.09007 44.41C7.11007 51.28 12.6701 56.95 19.5401 57.09C21.9901 57.14 24.2901 56.49 26.2601 55.34C29.0401 62.41 35.2601 69.98 40.9401 73.7C41.5401 74.09 42.2401 73.37 41.8301 72.79C39.0401 68.78 34.1101 61.24 33.2001 55.38C35.1601 56.52 37.4501 57.16 39.9001 57.1C46.7101 56.94 52.2301 51.35 52.3101 44.53C52.3401 41.58 51.3701 38.86 49.7201 36.69C55.0901 35.17 59.0101 30.21 58.9501 24.34H58.9301ZM43.9401 26.96C43.8801 29.13 43.1901 31.08 41.6801 32.68C39.3701 35.12 37.0301 37.53 34.7101 39.95C33.0401 41.69 31.3701 43.44 29.7001 45.18C29.3801 45.52 29.3501 45.52 29.0201 45.18C25.5201 41.54 22.0201 37.9 18.5301 34.25C17.7501 33.43 16.9701 32.61 16.2901 31.71C15.5001 30.67 15.0701 29.44 14.9001 28.14C14.8401 27.7 14.7901 27.26 14.7501 26.92C14.9101 23.92 15.9601 21.49 18.4101 19.81C19.8701 18.81 21.5101 18.44 23.3001 18.7C25.1501 18.97 26.6001 19.9 27.8301 21.24C28.2601 21.7 28.7101 22.15 29.1301 22.61C29.3201 22.81 29.4401 22.77 29.6101 22.59C30.4201 21.77 31.1901 20.89 32.0801 20.16C33.6201 18.91 35.4201 18.41 37.4101 18.72C40.1801 19.15 42.0001 20.79 43.1601 23.25C43.7201 24.43 43.9801 25.68 43.9401 26.98V26.96Z" fill="url(#paint0_linear_7_5)"/>
<defs>
<linearGradient id="paint0_linear_7_5" x1="42.3801" y1="53.1" x2="15.9501" y2="0.429996" gradientUnits="userSpaceOnUse">
<stop offset="0.03" stop-color="#0CD9B4"/>
<stop offset="0.97" stop-color="#0B41CC"/>
</linearGradient>
</defs>
</svg>
